# Blender v2.79 (sub 0) OBJ File: 'shelter.blend'
# www.blender.org
mtllib shelter.mtl
o Cube_Cube.003
v -1.000250 -0.688203 1.004604
v -1.000250 -0.477644 1.004604
v -1.000250 -0.688203 -0.995396
v -1.000250 -0.477644 -0.995396
v 0.999750 -0.688203 1.004604
v 0.999750 -0.477644 1.004604
v 0.999750 -0.688203 -0.995396
v 0.999750 -0.477644 -0.995396
v 0.799750 -0.477644 -0.795396
v 0.799750 -0.477644 0.804604
v -0.800250 -0.477644 -0.795396
v -0.800250 -0.477644 0.804604
v 0.799750 -0.477644 0.904604
v 0.799750 -0.477644 -0.895396
v -0.800250 -0.477644 0.904604
v -0.800250 -0.477644 -0.895396
v 0.899750 -0.477644 -0.795396
v 0.899750 -0.477644 0.804604
v -0.900250 -0.477644 -0.795396
v -0.900250 -0.477644 0.804604
v -0.900250 -0.477644 -0.895396
v 0.899750 -0.477644 -0.895396
v 0.899750 -0.477644 0.904604
v -0.900250 -0.477644 0.904604
v 0.799750 0.343239 -0.895396
v 0.799750 0.343239 -0.795396
v -0.800250 0.343239 -0.895396
v -0.800250 0.343239 -0.795396
v -0.900250 0.343239 -0.795396
v -0.900250 0.343239 0.804604
v -0.800250 0.343239 0.804604
v 0.799750 0.343239 0.804604
v 0.799750 0.343239 0.904604
v -0.800250 0.343239 0.904604
v 0.899750 0.343239 -0.795396
v 0.899750 0.343239 0.804604
v -0.900250 0.343239 -0.895396
v 0.899750 0.343239 -0.895396
v 0.899750 0.343239 0.904604
v -0.900250 0.343239 0.904604
v -1.000250 0.259418 1.004604
v -1.000250 0.259418 -0.995396
v 0.999750 0.259418 1.004604
v 0.999750 0.259418 -0.995396
v -0.385428 0.641342 -0.380575
v 0.384929 0.641342 -0.380575
v 0.384929 0.641342 0.389782
v -0.385428 0.641342 0.389782
v 0.779400 0.584260 0.784254
v 0.779400 0.584260 -0.775047
v -0.779900 0.584260 0.784254
v -0.779900 0.584260 -0.775047
v -0.779900 0.561417 -0.775047
v 0.779400 0.561417 -0.775047
v 0.779400 0.561417 0.784254
v -0.779900 0.561417 0.784254
v 0.999750 0.338391 1.004604
v 0.999750 0.338391 -0.995396
v -1.000250 0.338391 1.004604
v -1.000250 0.338391 -0.995396
v 0.999750 0.304508 -0.995396
v 0.999750 0.293301 -0.995396
v -1.000250 0.293301 -0.995396
v -1.000250 0.304508 -0.995396
v 0.999750 0.304508 1.004604
v 0.999750 0.293301 1.004604
v -1.000250 0.293301 1.004604
v -1.000250 0.304508 1.004604
v 0.983307 0.304508 -0.978953
v 0.983307 0.293301 -0.978953
v -0.983806 0.293301 -0.978953
v -0.983806 0.304508 -0.978953
v 0.983307 0.304508 0.988160
v 0.983307 0.293301 0.988160
v -0.983806 0.293301 0.988160
v -0.983806 0.304508 0.988160
v -0.193953 -0.477644 1.004604
v -0.192769 -0.477644 0.707234
v -0.198270 -0.688203 1.004604
v 0.132355 -0.477644 1.004604
v 0.131763 -0.477644 0.707234
v 0.134514 -0.688203 1.004604
v -0.192769 -0.522831 0.707234
v 0.131763 -0.522831 0.707234
v -0.192769 -0.522831 0.781413
v 0.131763 -0.522831 0.781413
v -0.192769 -0.564089 0.781413
v 0.131763 -0.564089 0.781413
v -0.192769 -0.564089 0.850223
v 0.131763 -0.564089 0.850223
v -0.192769 -0.605346 0.850223
v 0.131763 -0.605346 0.850223
v -0.195089 -0.610916 0.928780
v 0.129444 -0.610916 0.928780
v -0.195089 -0.647141 0.928780
v 0.129444 -0.647141 0.928780
v -0.192047 -0.648953 0.996172
v 0.132485 -0.648953 0.996172
vt 0.069553 0.676713
vt 0.069553 0.676714
vt 0.069553 0.962064
vt 0.069553 0.962064
vt 0.219510 0.962064
vt 0.219510 0.676713
vt 0.219510 0.676714
vt 0.219510 0.962064
vt 0.129684 0.676714
vt 0.130008 0.962064
vt 0.154636 0.676714
vt 0.625891 0.720470
vt 0.625891 0.720470
vt 0.625891 0.895404
vt 0.625891 0.895404
vt 0.625891 0.720470
vt 0.625891 0.720470
vt 0.625891 0.895404
vt 0.625891 0.895404
vt 0.620515 0.720470
vt 0.620515 0.720470
vt 0.620515 0.895404
vt 0.620515 0.895404
vt 0.529129 0.720470
vt 0.534504 0.720470
vt 0.534504 0.895404
vt 0.529129 0.895404
vt 0.534504 0.895404
vt 0.529129 0.895404
vt 0.620515 0.895404
vt 0.620515 0.895404
vt 0.534504 0.895404
vt 0.529129 0.895404
vt 0.529129 0.895404
vt 0.534504 0.895404
vt 0.534504 0.720470
vt 0.529129 0.720470
vt 0.529129 0.720470
vt 0.620515 0.720470
vt 0.534504 0.720470
vt 0.534504 0.720470
vt 0.529129 0.720470
vt 0.620515 0.720470
vt 0.077051 0.962064
vt 0.084549 0.962064
vt 0.204514 0.962064
vt 0.212012 0.962064
vt 0.077051 0.962064
vt 0.077051 0.962064
vt 0.077051 0.962064
vt 0.130097 0.962064
vt 0.084549 0.962064
vt 0.212012 0.962064
vt 0.212012 0.962064
vt 0.212012 0.962064
vt 0.204514 0.962064
vt 0.084549 0.962064
vt 0.154429 0.962064
vt 0.204514 0.962064
vt 0.084549 0.962064
vt 0.535598 0.946767
vt 0.556804 0.958932
vt 0.598216 0.958932
vt 0.619421 0.946767
vt 0.523753 0.894371
vt 0.535598 0.941899
vt 0.535598 0.941899
vt 0.523753 0.894371
vt 0.631267 0.894371
vt 0.619421 0.941899
vt 0.619421 0.941899
vt 0.631267 0.894371
vt 0.523753 0.877542
vt 0.631267 0.877542
vt 0.631267 0.877542
vt 0.523753 0.877542
vt 0.619421 0.946767
vt 0.535598 0.946767
vt 0.523753 0.887151
vt 0.631267 0.887151
vt 0.631267 0.887151
vt 0.523753 0.887151
vt 0.556804 0.958932
vt 0.598216 0.958932
vt 0.631267 0.884763
vt 0.523753 0.884763
vt 0.630383 0.884763
vt 0.524637 0.884763
vt 0.523753 0.884763
vt 0.524637 0.884763
vt 0.631267 0.884763
vt 0.630383 0.884763
vt 0.630383 0.887151
vt 0.524637 0.887151
vt 0.524637 0.887151
vt 0.630383 0.887151
vt 0.154429 0.962064
vt 0.130097 0.962064
vt 0.130097 0.962064
vt 0.154429 0.962064
vt 0.130097 0.962064
vt 0.154429 0.962064
vt 0.154474 0.962064
vt 0.130097 0.962064
vt 0.154429 0.962064
vt 0.130097 0.962064
vt 0.154429 0.962064
vt 0.130097 0.962064
vt 0.154429 0.962064
vt 0.130097 0.962064
vt 0.154429 0.962064
vt 0.130097 0.962064
vt 0.154429 0.962064
vn -0.5773 -0.5773 -0.5773
vn -0.5773 -0.5773 0.5773
vn -0.5773 0.5773 0.5773
vn -0.5773 0.5773 -0.5773
vn 0.5773 0.5773 -0.5773
vn 0.5773 -0.5773 -0.5773
vn 0.5773 -0.5773 0.5773
vn 0.5773 0.5773 0.5773
vn 0.0604 -0.6890 0.7222
vn 0.5762 0.5779 0.5779
vn -0.0515 -0.6757 0.7353
vn 0.2357 0.9428 0.2357
vn 0.2357 0.9428 -0.2357
vn 0.3015 0.9045 0.3015
vn 0.3015 0.9045 -0.3015
vn -0.3015 0.9045 -0.3015
vn -0.3015 0.9045 0.3015
vn -0.2564 0.9319 0.2564
vn 0.3378 0.8784 0.3378
vn -0.7071 0.0000 -0.7071
vn 0.3374 0.8767 0.3428
vn -0.3335 0.8803 0.3373
vn -0.5909 0.5491 -0.5909
vn -0.0539 0.9971 -0.0539
vn 0.0539 0.9971 -0.0539
vn 0.5909 0.5491 -0.5909
vn -0.6513 0.3894 0.6513
vn -0.5807 0.5705 0.5807
vn -0.5807 0.5705 -0.5807
vn -0.6513 0.3894 -0.6513
vn 0.6513 0.3894 0.6513
vn 0.5807 0.5705 0.5807
vn 0.5807 0.5705 -0.5807
vn 0.6513 0.3894 -0.6513
vn 0.5909 0.5491 0.5909
vn -0.5909 0.5491 0.5909
vn -0.0539 0.9971 0.0539
vn 0.0539 0.9971 0.0539
vn 0.3015 -0.9045 0.3015
vn -0.3015 -0.9045 0.3015
vn -0.3015 -0.9045 -0.3015
vn 0.3015 -0.9045 -0.3015
vn -0.5738 0.5777 0.5805
vn 0.5742 0.5744 0.5834
vn -0.5748 0.5795 0.5777
vn 0.5743 0.5587 0.5983
vn -0.5811 0.5482 0.6014
vn 0.5814 0.5448 0.6042
vn -0.5740 0.5620 0.5955
vn 0.5810 0.5549 0.5954
vn -0.5698 0.5799 0.5823
vn 0.5622 0.6182 0.5494
vn -0.5870 0.6086 0.5338
usemtl None
s 1
f 3/1/1 1/2/2 2/3/3 4/4/4
f 3/1/1 4/4/4 8/5/5 7/6/6
f 5/7/7 7/6/6 8/5/5 6/8/8
f 2/3/3 1/2/2 79/9/9 77/10/10
f 3/1/1 7/6/6 5/7/7 82/11/11 79/9/9 1/2/2
f 23/12/12 18/13/13 36/14/5 39/15/8
f 17/16/14 22/17/15 38/18/5 35/19/8
f 14/20/16 9/21/17 26/22/3 25/23/4
f 19/24/17 11/25/8 28/26/8 29/27/3
f 38/18/5 25/23/4 26/22/3 35/19/8
f 27/28/5 37/29/4 29/27/3 28/26/8
f 36/14/5 32/30/4 33/31/3 39/15/8
f 31/32/5 30/33/4 40/34/3 34/35/8
f 12/36/15 20/37/16 30/33/4 31/32/5
f 21/38/16 19/24/17 29/27/3 37/29/4
f 13/39/18 23/12/12 39/15/8 33/31/3
f 15/40/19 12/36/15 31/32/5 34/35/8
f 22/17/15 14/20/16 25/23/4 38/18/5
f 16/41/15 21/38/16 37/29/4 27/28/5
f 20/37/16 24/42/17 40/34/3 30/33/4
f 10/43/20 13/39/18 33/31/3 32/30/4
f 24/42/17 15/40/19 34/35/8 40/34/3
f 9/21/17 17/16/14 35/19/8 26/22/3
f 11/25/8 16/41/15 27/28/5 28/26/8
f 18/13/13 10/43/20 32/30/4 36/14/5
f 8/5/5 4/4/4 21/44/16 16/45/15 14/46/16 22/47/15
f 2/3/3 24/48/17 20/49/16 19/50/17 21/44/16 4/4/4
f 2/3/3 77/10/10 78/51/21 15/52/19 24/48/17
f 6/8/8 8/5/5 22/47/15 17/53/14 18/54/13 23/55/12
f 9/56/17 12/57/15 15/52/19 78/51/21 81/58/22 13/59/18 23/55/12 18/54/13 17/53/14
f 14/46/16 16/45/15 11/60/8 19/50/17 20/49/16 12/57/15 9/56/17
f 52/61/23 45/62/24 46/63/25 50/64/26
f 59/65/27 56/66/28 53/67/29 60/68/30
f 57/69/31 55/70/32 56/66/28 59/65/27
f 60/68/30 53/67/29 54/71/33 58/72/34
f 42/73/1 44/74/6 43/75/7 41/76/2
f 55/70/32 49/77/35 51/78/36 56/66/28
f 64/79/1 60/68/30 58/72/34 61/80/6
f 61/80/6 58/72/34 57/69/31 65/81/7
f 68/82/2 59/65/27 60/68/30 64/79/1
f 65/81/7 57/69/31 59/65/27 68/82/2
f 58/72/34 54/71/33 55/70/32 57/69/31
f 53/67/29 52/61/23 50/64/26 54/71/33
f 54/71/33 50/64/26 49/77/35 55/70/32
f 56/66/28 51/78/36 52/61/23 53/67/29
f 45/62/24 48/83/37 47/84/38 46/63/25
f 49/77/35 47/84/38 48/83/37 51/78/36
f 51/78/36 48/83/37 45/62/24 52/61/23
f 50/64/26 46/63/25 47/84/38 49/77/35
f 43/75/7 66/85/8 67/86/3 41/76/2
f 66/85/8 74/87/14 75/88/17 67/86/3
f 41/76/2 67/86/3 63/89/4 42/73/1
f 67/86/3 75/88/17 71/90/16 63/89/4
f 44/74/6 62/91/5 66/85/8 43/75/7
f 62/91/5 70/92/15 74/87/14 66/85/8
f 42/73/1 63/89/4 62/91/5 44/74/6
f 63/89/4 71/90/16 70/92/15 62/91/5
f 74/87/14 73/93/39 76/94/40 75/88/17
f 75/88/17 76/94/40 72/95/41 71/90/16
f 70/92/15 69/96/42 73/93/39 74/87/14
f 71/90/16 72/95/41 69/96/42 70/92/15
f 61/80/6 69/96/42 72/95/41 64/79/1
f 65/81/7 73/93/39 69/96/42 61/80/6
f 64/79/1 72/95/41 76/94/40 68/82/2
f 68/82/2 76/94/40 73/93/39 65/81/7
f 86/97/43 85/98/44 87/99/44 88/100/43
f 81/58/22 78/51/21 83/101/44 84/102/43
f 84/102/43 83/101/44 85/98/44 86/97/43
f 81/58/22 80/103/45 6/8/8 23/55/12 13/59/18
f 80/103/45 82/11/11 5/7/7 6/8/8
f 88/100/43 87/99/44 89/104/44 90/105/43
f 90/105/43 89/104/44 91/106/46 92/107/47
f 92/107/47 91/106/46 93/108/48 94/109/49
f 94/109/49 93/108/48 95/110/50 96/111/51
f 96/111/51 95/110/50 97/112/52 98/113/53
f 79/9/9 82/11/11 98/113/53 97/112/52
f 79/9/9 97/112/52 95/110/50 93/108/48 91/106/46 89/104/44 87/99/44 85/98/44 83/101/44 78/51/21 77/10/10
f 81/58/22 84/102/43 86/97/43 88/100/43 90/105/43 92/107/47 94/109/49 96/111/51 98/113/53 82/11/11 80/103/45
